<?xml version="1.0" encoding="UTF-8"?>
<svg width="320px" height="240px" viewBox="0 0 320 240" version="1.1" xmlns="http://www.w3.org/2000/svg" xmlns:xlink="http://www.w3.org/1999/xlink">
    <!-- Generator: Sketch 58 (84663) - https://sketch.com -->
    <title>albatross-thumbnail</title>
    <desc>Created with Sketch.</desc>
    <defs>
        <rect id="path-1" x="0" y="0" width="133.560008" height="139.920008" rx="1.59000009"></rect>
        <filter x="-2.6%" y="-1.8%" width="105.2%" height="105.0%" filterUnits="objectBoundingBox" id="filter-2">
            <feOffset dx="0" dy="1" in="SourceAlpha" result="shadowOffsetOuter1"></feOffset>
            <feGaussianBlur stdDeviation="1" in="shadowOffsetOuter1" result="shadowBlurOuter1"></feGaussianBlur>
            <feColorMatrix values="0 0 0 0 0   0 0 0 0 0   0 0 0 0 0  0 0 0 0.16 0" type="matrix" in="shadowBlurOuter1"></feColorMatrix>
        </filter>
        <path d="M8.9999015,5.42537666 L61.6071957,5.42537666 C64.7533661,5.42537666 67.3038411,7.97585172 67.3038411,11.1220222 C67.3038411,14.2681926 64.7533661,16.8186677 61.6071957,16.8186677 L8.9999015,16.8186677 C5.85373107,16.8186677 3.30325601,14.2681926 3.30325601,11.1220222 C3.30325601,7.97585172 5.85373107,5.42537666 8.9999015,5.42537666 Z" id="path-3"></path>
        <filter x="-7.8%" y="-35.1%" width="115.6%" height="187.8%" filterUnits="objectBoundingBox" id="filter-4">
            <feOffset dx="0" dy="1" in="SourceAlpha" result="shadowOffsetOuter1"></feOffset>
            <feGaussianBlur stdDeviation="1.5" in="shadowOffsetOuter1" result="shadowBlurOuter1"></feGaussianBlur>
            <feColorMatrix values="0 0 0 0 0.125490196   0 0 0 0 0.57254902   0 0 0 0 0.91372549  0 0 0 0.5 0" type="matrix" in="shadowBlurOuter1"></feColorMatrix>
        </filter>
        <rect id="path-5" x="0" y="0.440001488" width="339.20002" height="35"></rect>
        <filter x="-1.5%" y="-11.4%" width="102.9%" height="128.6%" filterUnits="objectBoundingBox" id="filter-6">
            <feOffset dx="0" dy="1" in="SourceAlpha" result="shadowOffsetOuter1"></feOffset>
            <feGaussianBlur stdDeviation="1.5" in="shadowOffsetOuter1" result="shadowBlurOuter1"></feGaussianBlur>
            <feColorMatrix values="0 0 0 0 0.22745098   0 0 0 0 0.262745098   0 0 0 0 0.28627451  0 0 0 0.06 0" type="matrix" in="shadowBlurOuter1"></feColorMatrix>
        </filter>
        <filter x="-38.6%" y="-38.6%" width="172.7%" height="172.7%" filterUnits="objectBoundingBox" id="filter-7">
            <feOffset dx="0" dy="1" in="SourceAlpha" result="shadowOffsetOuter1"></feOffset>
            <feGaussianBlur stdDeviation="1" in="shadowOffsetOuter1" result="shadowBlurOuter1"></feGaussianBlur>
            <feColorMatrix values="0 0 0 0 0.22745098   0 0 0 0 0.262745098   0 0 0 0 0.28627451  0 0 0 0.24 0" type="matrix" in="shadowBlurOuter1" result="shadowMatrixOuter1"></feColorMatrix>
            <feMerge>
                <feMergeNode in="shadowMatrixOuter1"></feMergeNode>
                <feMergeNode in="SourceGraphic"></feMergeNode>
            </feMerge>
        </filter>
        <linearGradient x1="50%" y1="0%" x2="50%" y2="100%" id="linearGradient-8">
            <stop stop-color="#FFFFFF" stop-opacity="0" offset="0%"></stop>
            <stop stop-color="#FFFFFF" stop-opacity="0.973858173" offset="100%"></stop>
        </linearGradient>
    </defs>
    <g id="albatross-thumbnail" stroke="none" stroke-width="1" fill="none" fill-rule="evenodd">
        <rect fill="#FFFFFF" x="0" y="0" width="320" height="240"></rect>
        <g id="Group-2">
            <text id="Let’s-Begin" font-family="SofiaPro-SemiBold, Sofia Pro" font-size="16.960001" font-weight="500" line-spacing="19.0800011" fill="#3A4349" fill-opacity="0.9">
                <tspan x="33.920002" y="102.405004">Let’s Begin</tspan>
            </text>
            <text id="If-you-would-like-so" font-family="SofiaProRegular, Sofia Pro" font-size="6.36000037" font-weight="normal" line-spacing="8.4800005" fill="#3A4349" fill-opacity="0.68">
                <tspan x="33.920002" y="111.460006">If you would like some help, </tspan>
                <tspan x="33.920002" y="119.940006">just give us a call.</tspan>
            </text>
            <g id="Group" transform="translate(33.920002, 137.730007)">
                <g id="Rectangle-5">
                    <use fill="black" fill-opacity="1" filter="url(#filter-2)" xlink:href="#path-1"></use>
                    <use fill="#FFFFFF" fill-rule="evenodd" xlink:href="#path-1"></use>
                </g>
                <g id="Buttons/Large/Button-blue-lg" transform="translate(29.945002, 82.150005)">
                    <g id="Button-blue-lg">
                        <g id="Button-green">
                            <g id="-" fill="black" fill-opacity="1">
                                <use filter="url(#filter-4)" xlink:href="#path-3"></use>
                            </g>
                            <path d="M8.40933383,0 L62.6106703,0 C67.2550172,3.9036229e-15 71.0200042,3.764987 71.0200042,8.40933383 C71.0200042,13.0536807 67.2550172,16.8186677 62.6106703,16.8186677 L8.40933383,16.8186677 C3.764987,16.8186677 5.68768448e-16,13.0536807 0,8.40933383 C-5.68768448e-16,3.764987 3.764987,2.62950951e-15 8.40933383,0 Z" id="Rectangle-4" fill="#2092E9"></path>
                            <text id="Button" font-family="SofiaPro-Medium, Sofia Pro" font-size="6.36000037" font-weight="400" letter-spacing="0.11448001" fill="#FFFFFF">
                                <tspan x="21.4459212" y="11.1542295">Next Step</tspan>
                            </text>
                        </g>
                    </g>
                </g>
                <text id="or" font-family="SofiaProRegular, Sofia Pro" font-size="5.56500033" font-weight="normal" fill="#3A4349" fill-opacity="0.87">
                    <tspan x="63.1423487" y="105.230006">or</tspan>
                </text>
                <g id="Forms/Inputs/input_unfocused_box" transform="translate(15.105001, 38.160002)">
                    <g id="input_unfocused" transform="translate(0.000000, -0.530000)">
                        <g id="Field" transform="translate(0.000000, 6.360000)">
                            <rect id="Rectangle-Copy" stroke-opacity="0.24" stroke="#3A4349" stroke-width="0.5" fill="#FFFFFF" x="0.25" y="0.25" width="102.113895" height="10.1000006" rx="1.06000006"></rect>
                            <text id="Text" font-family="SofiaProRegular, Sofia Pro" font-size="4.24000025" font-weight="normal" fill="#3A4349" fill-opacity="0.5">
                                <tspan x="2.12000012" y="5.91500017">hi@hello.com</tspan>
                            </text>
                        </g>
                        <text id="Label-Copy" font-family="SofiaPro-SemiBold, Sofia Pro" font-size="3.71000022" font-weight="500" letter-spacing="0.34781252" fill="#3A4349" fill-opacity="0.8">
                            <tspan x="0" y="4">EMAIL</tspan>
                        </text>
                    </g>
                </g>
            </g>
            <g id="Navigation/desktop-nav">
                <g id="Nav">
                    <g id="Rectangle-2">
                        <use fill="black" fill-opacity="1" filter="url(#filter-6)" xlink:href="#path-5"></use>
                        <use fill="#FFFFFF" fill-rule="evenodd" xlink:href="#path-5"></use>
                    </g>
                    <text id="Button" font-family="SofiaPro-SemiBold, Sofia Pro" font-size="6.36000037" font-weight="500" fill="#3A4349" fill-opacity="0.9">
                        <tspan x="245.065654" y="24.6850004">Call 1-800-704-9412</tspan>
                    </text>
                    <path d="M242.172157,24.3194651 C242.172157,24.3833494 242.160327,24.4667526 242.136666,24.5696772 C242.113005,24.6726018 242.088162,24.753639 242.062135,24.812791 C242.012447,24.9310952 241.868118,25.0564958 241.629144,25.1889964 C241.406732,25.3096667 241.186689,25.3700009 240.96901,25.3700009 C240.905125,25.3700009 240.842425,25.3658603 240.780907,25.357579 C240.719389,25.3492977 240.651365,25.3345099 240.576833,25.3132152 C240.502302,25.2919204 240.4467,25.2747666 240.410025,25.2617531 C240.373351,25.2487397 240.307693,25.2244877 240.21305,25.1889964 C240.118406,25.1535052 240.060438,25.1322107 240.039144,25.1251125 C239.807267,25.0422996 239.600238,24.9441086 239.41805,24.8305366 C239.117557,24.643616 238.805239,24.3880828 238.481085,24.0639294 C238.156932,23.739776 237.901399,23.4274576 237.714478,23.1269651 C237.600906,22.9447766 237.502715,22.7377474 237.419902,22.5058713 C237.412804,22.4845765 237.39151,22.4266083 237.356018,22.331965 C237.320527,22.2373217 237.296275,22.1716638 237.283262,22.1349895 C237.270248,22.0983153 237.253094,22.0427131 237.2318,21.9681815 C237.210505,21.8936499 237.195717,21.825626 237.187436,21.7641078 C237.179154,21.7025897 237.175014,21.6398894 237.175014,21.5760051 C237.175014,21.3583255 237.235348,21.138283 237.356018,20.9158712 C237.488519,20.6768968 237.61392,20.5325678 237.732224,20.4828801 C237.791376,20.4568532 237.872413,20.4320097 237.975338,20.4083488 C238.078262,20.384688 238.161665,20.3728577 238.22555,20.3728577 C238.258675,20.3728577 238.283518,20.3764068 238.300081,20.3835051 C238.34267,20.3977016 238.405371,20.4876114 238.488184,20.6532372 C238.514211,20.6981928 238.549701,20.7620761 238.594657,20.844889 C238.639612,20.9277019 238.681018,21.002824 238.718876,21.0702573 C238.756733,21.1376907 238.793407,21.2009825 238.828898,21.2601346 C238.835996,21.2695989 238.856699,21.2991745 238.891007,21.3488623 C238.925315,21.39855 238.95075,21.4405474 238.967313,21.4748556 C238.983876,21.5091638 238.992157,21.54288 238.992157,21.5760051 C238.992157,21.6233268 238.958441,21.682478 238.891007,21.7534605 C238.823574,21.824443 238.750226,21.8895093 238.670963,21.9486614 C238.591699,22.0078135 238.518351,22.0705138 238.450918,22.1367641 C238.383485,22.2030144 238.349768,22.2574335 238.349768,22.300023 C238.349768,22.3213178 238.355684,22.3479358 238.367514,22.379878 C238.379344,22.4118201 238.3894,22.4360721 238.397681,22.4526347 C238.405963,22.4691972 238.422525,22.4975898 238.447369,22.5378132 C238.472213,22.5780367 238.485818,22.6005141 238.488184,22.6052463 C238.668006,22.9293997 238.873852,23.2074103 239.105728,23.4392865 C239.337604,23.6711627 239.615615,23.8770088 239.939768,24.0568312 C239.944501,24.0591973 239.966978,24.072802 240.007202,24.0976459 C240.047425,24.1224898 240.075818,24.1390521 240.09238,24.1473334 C240.108943,24.1556147 240.133195,24.1656704 240.165137,24.1775008 C240.197079,24.1893312 240.223697,24.1952464 240.244992,24.1952464 C240.287581,24.1952464 240.342,24.1615302 240.408251,24.0940968 C240.474501,24.0266634 240.537201,23.9533159 240.596353,23.8740522 C240.655505,23.7947884 240.720572,23.7214409 240.791554,23.6540075 C240.862537,23.5865741 240.921688,23.5528579 240.96901,23.5528579 C241.002135,23.5528579 241.035851,23.5611391 241.070159,23.5777017 C241.104467,23.5942643 241.146465,23.6196993 241.196152,23.6540075 C241.24584,23.6883157 241.275416,23.7090186 241.28488,23.7161169 C241.344032,23.7516081 241.407324,23.7882819 241.474757,23.8261392 C241.542191,23.8639965 241.617313,23.9054024 241.700126,23.950358 C241.782939,23.9953135 241.846822,24.0308043 241.891778,24.0568312 C242.057403,24.1396441 242.147313,24.2023444 242.16151,24.2449339 C242.168608,24.2614965 242.172157,24.28634 242.172157,24.3194651 Z" id="Phone---FontAwesome" fill="#55ACEE"></path>
                    <g id="Logo" transform="translate(22.525001, 16.890000)">
                        <g id="Asset-1">
                            <g id="Layer_2">
                                <g id="Layer_1-2">
                                    <path d="M17.2487995,9.02624468 C17.2727189,9.65418817 17.1607626,10.2798604 16.9206884,10.8599071 C16.7364743,11.2810564 16.4552893,11.6519668 16.1004107,11.9419332 C15.7901487,12.1888674 15.4301708,12.3647508 15.0455336,12.457341 C14.7108919,12.540103 14.3680184,12.5844375 14.0234676,12.5894968 C13.7217512,12.5899444 13.4206911,12.5611783 13.1244432,12.5035955 C12.839461,12.4484721 12.5607767,12.3643416 12.2926816,12.2524994 C12.0397441,12.147164 11.8001744,12.0118515 11.57904,11.8494241 C11.3692991,11.6954401 11.1816077,11.5131157 11.0212512,11.3075851 L11.6364595,10.7277513 C11.8994439,11.1097713 12.2622658,11.411078 12.6847744,11.598328 C13.1063686,11.7836914 13.5618015,11.878224 14.021827,11.8758552 C14.3674471,11.8828373 14.7114758,11.8268732 15.0373308,11.7106604 C15.2895267,11.6189052 15.5209936,11.4773758 15.7181613,11.2943695 C15.8908226,11.1354548 16.0341291,10.9469678 16.1414246,10.737663 C16.2385486,10.5402121 16.3133876,10.3324214 16.3645401,10.1181824 C16.4104723,9.92569061 16.4390249,9.72941092 16.449849,9.53174082 C16.4585987,9.34672262 16.4629735,9.19694599 16.4629735,9.08241092 L16.4629735,8.23496152 L16.4367246,8.23496152 C16.2111492,8.60264742 15.8923304,8.9031524 15.5130919,9.10553819 C15.0889486,9.3230302 14.6173655,9.42981644 14.1415876,9.41610445 C13.7102704,9.41868141 13.2826808,9.33560093 12.8832816,9.17161612 C12.1158082,8.86240417 11.4968085,8.26633451 11.1557767,7.50810434 C10.8150583,6.73500354 10.8150583,5.85284135 11.1557767,5.07974056 C11.3213788,4.70733739 11.5570355,4.37075127 11.8497317,4.08857167 C12.1489268,3.8030491 12.497564,3.57516916 12.8783599,3.41622877 C13.2766839,3.24793057 13.704705,3.16251856 14.1366659,3.16513265 C14.6124537,3.15373942 15.0834696,3.262797 15.5065297,3.4823067 C15.8858146,3.684627 16.2046489,3.98514652 16.4301624,4.35288337 L16.4564112,4.35288337 L16.4564112,3.32537162 L17.2422373,3.32537162 L17.2487995,9.02624468 Z M16.4875818,6.29557439 C16.4893906,5.97130665 16.4245997,5.65016426 16.2972774,5.352312 C16.0558352,4.77469724 15.5994781,4.31517108 15.0258469,4.07205219 C14.4270149,3.81705253 13.7511647,3.81705253 13.1523327,4.07205219 C12.5787015,4.31517108 12.1223444,4.77469724 11.8809022,5.352312 C11.6276612,5.95530256 11.6276612,6.63584623 11.8809022,7.23883679 C12.1223444,7.81645155 12.5787015,8.27597771 13.1523327,8.5190966 C13.7511647,8.77409626 14.4270149,8.77409626 15.0258469,8.5190966 C15.5994781,8.27597771 16.0558352,7.81645155 16.2972774,7.23883679 C16.4246451,6.94099884 16.489438,6.61984679 16.4875818,6.29557439 L16.4875818,6.29557439 Z" id="Shape" fill="#818181"></path>
                                    <path d="M19.468471,5.04174575 C19.468471,4.93161587 19.4640961,4.79285223 19.4553465,4.62545482 C19.4465969,4.4580574 19.4400347,4.29286259 19.4356599,4.12987037 C19.4356599,3.96247296 19.4290976,3.80608853 19.4159732,3.6607171 C19.4028487,3.51534566 19.3984739,3.40521578 19.4028487,3.33032747 L20.1886748,3.33032747 C20.1974244,3.55939761 20.2039866,3.77965736 20.2083615,3.99110673 C20.2056637,4.12842907 20.2166558,4.26567749 20.2411726,4.40078987 C20.4312334,4.0526809 20.6950382,3.75094911 21.0138742,3.51699761 C21.3504106,3.28191964 21.7528493,3.16150744 22.1622629,3.17339239 C22.239249,3.17326339 22.3160994,3.17989632 22.3919407,3.19321577 C22.4657657,3.20643136 22.5428718,3.22129889 22.6216184,3.23947032 L22.5297473,4.0175379 C22.4326087,3.98366947 22.3306759,3.96581891 22.2278852,3.96467556 C21.9249607,3.95760124 21.6238701,4.01385013 21.3436258,4.12987037 C21.1062403,4.23179322 20.8956298,4.38787903 20.7284175,4.58580806 C20.5635315,4.78507078 20.4407231,5.01609254 20.3674953,5.26475875 C20.2870787,5.53649189 20.2472693,5.81876274 20.2493753,6.10229646 L20.2493753,9.41610445 L19.4635493,9.41610445 L19.468471,5.04174575 Z" id="Shape" fill="#818181"></path>
                                    <path d="M28.8147151,6.86219261 L28.8147151,7.66669136 C28.8147151,7.90347059 28.8212773,8.12373035 28.8344018,8.32747062 C28.8431514,8.53010959 28.8540884,8.71898233 28.8672129,8.89408883 C28.8803373,9.06919534 28.900024,9.24540314 28.9262729,9.42271224 L28.1929446,9.42271224 C28.138135,9.09525538 28.1117863,8.7636097 28.1141979,8.43154335 L28.087949,8.43154335 C27.8921515,8.79516784 27.5995748,9.09664098 27.243063,9.30212002 C26.8483992,9.50043203 26.4108116,9.5963932 25.969992,9.58129926 C25.7092932,9.58138269 25.4496425,9.54807646 25.1972904,9.48218237 C24.9527056,9.42008994 24.7217986,9.31251881 24.5164599,9.16500833 C24.0703308,8.84653888 23.8142068,8.32265472 23.8356294,7.77241604 C23.8140677,7.37158469 23.9402586,6.97685256 24.1899894,6.66395883 C24.4264022,6.39120675 24.7254662,6.18080511 25.0611243,6.05108607 C25.4143076,5.91262902 25.784709,5.82369342 26.161937,5.78677436 C26.5502018,5.74712761 26.8930779,5.72730423 27.1905652,5.72730423 L28.1076357,5.72730423 L28.1076357,5.35726785 C28.1076357,4.82974574 27.9435802,4.45144961 27.6154691,4.22237947 C27.2547452,3.98251779 26.8285075,3.86236555 26.3965364,3.87877425 C25.7180947,3.87127813 25.0606088,4.11528478 24.549271,4.56433273 L24.0899155,4.02249374 C24.3958158,3.73075418 24.7631143,3.51223259 25.1644793,3.38318981 C25.5606449,3.24347912 25.9768029,3.16982487 26.3965364,3.16513265 C27.1304115,3.16513265 27.715543,3.33913786 28.1519307,3.68714827 C28.5883184,4.03515868 28.8070592,4.59571975 28.8081529,5.36883148 L28.8147151,6.86219261 Z M27.2414225,6.36660816 C26.9192838,6.3660202 26.597498,6.38809995 26.2784164,6.43268609 C25.9905327,6.47090855 25.7087593,6.54642187 25.4400926,6.65735104 C25.2112161,6.74900544 25.0071428,6.89392439 24.844571,7.08024976 C24.6930991,7.2659868 24.6138079,7.50081565 24.6214555,7.74102902 C24.6183231,7.9144709 24.6613751,8.08559296 24.7461377,8.23661347 C24.8275721,8.37880888 24.9397061,8.50075464 25.0742488,8.59343427 C25.2084502,8.68745508 25.3569452,8.75887059 25.5139176,8.80488363 C25.6735965,8.85305363 25.8393935,8.8775394 26.0060842,8.87756935 C26.3602252,8.88982426 26.712955,8.82678134 27.0412747,8.69255116 C27.2943772,8.58548696 27.5191031,8.42029783 27.6974969,8.2101823 C27.8557759,8.01382207 27.9679399,7.78398322 28.0256079,7.5378394 C28.086424,7.28973523 28.1172709,7.03514516 28.117479,6.7795952 L28.117479,6.36000037 L27.2414225,6.36660816 Z" id="Shape" fill="#818181"></path>
                                    <path d="M31.0803221,5.04174575 C31.0803221,4.93161587 31.0759473,4.79285223 31.0671977,4.62545482 C31.058448,4.4580574 31.0518858,4.29286259 31.047511,4.12987037 C31.047511,3.96247296 31.0409488,3.80608853 31.0278243,3.6607171 C31.0146999,3.51534566 31.0103251,3.40521578 31.0146999,3.33032747 L31.8005259,3.33032747 C31.8092756,3.55939761 31.8158378,3.77965736 31.8202126,3.99110673 C31.8175148,4.12842907 31.8285069,4.26567749 31.8530237,4.40078987 L31.892397,4.40078987 C32.0693231,4.04472965 32.341488,3.74550054 32.6782231,3.53682099 C33.0612579,3.29034869 33.5083114,3.16386751 33.9627779,3.17339239 C34.3575976,3.15889011 34.7504621,3.23574812 35.1111667,3.39805734 C35.3893672,3.53200021 35.630103,3.73353341 35.8116839,3.98449893 C35.9861982,4.23591724 36.1068737,4.52113637 36.1660439,4.82203665 C36.2320487,5.14320549 36.2650338,5.47036473 36.2644772,5.798338 L36.2644772,9.41610445 L35.4786511,9.41610445 L35.4786511,5.83302891 C35.4789915,5.59196393 35.4570224,5.35139146 35.4130289,5.11443147 C35.37353,4.89378618 35.2957856,4.68185946 35.1833512,4.48834312 C35.0724552,4.30194055 34.9137897,4.14902033 34.7239957,4.04562102 C34.4865367,3.92638082 34.2229845,3.86955374 33.9578563,3.8804262 C33.6773878,3.878875 33.3991295,3.93043008 33.1375786,4.03240543 C32.8872793,4.13365875 32.6633537,4.29132568 32.482997,4.49329896 C32.2835199,4.719593 32.1317139,4.98428834 32.0367659,5.27136654 C31.9208384,5.62672359 31.8653725,5.99925 31.8727104,6.37321596 L31.8727104,9.41610445 L31.0868843,9.41610445 L31.0803221,5.04174575 Z" id="Shape" fill="#818181"></path>
                                    <path d="M43.678147,0 L43.678147,4.46026 L43.6076032,4.46026 C43.5206928,4.22161876 43.3588393,4.0180419 43.1466071,3.8804262 C42.9652362,3.72215354 42.764564,3.58781313 42.5494449,3.48065475 C42.3344751,3.37681033 42.108182,3.29863778 41.8751767,3.24773006 C41.6469796,3.19879145 41.4145216,3.17278342 41.1812217,3.1700885 C40.7419307,3.16487407 40.305769,3.24508384 39.8966668,3.40631708 C39.5180132,3.55281085 39.1742403,3.77795566 38.8877253,4.06709634 C38.6039728,4.35772511 38.3808509,4.70259566 38.2315031,5.0813925 C38.0707024,5.49030937 37.9904644,5.92682764 37.9952631,6.36660816 C37.990293,6.80693974 38.0705333,7.2440316 38.2315031,7.65347577 C38.3808159,8.03277903 38.6039287,8.37819719 38.8877253,8.66942388 C39.1746716,8.95802877 39.5183247,9.18309513 39.8966668,9.33020314 C40.3037564,9.49606266 40.7387901,9.58131789 41.1779406,9.58129926 C41.4110813,9.58032182 41.6435462,9.55597316 41.8718955,9.50861354 C42.1045972,9.46051051 42.3308973,9.38510772 42.5461638,9.28394859 C42.7607374,9.19570509 42.9626652,9.07904031 43.1466071,8.93703948 C43.3187419,8.78515307 43.4723859,8.61325197 43.604322,8.42493556 L43.6748659,8.42493556 L43.6748659,9.41610445 L44.4951436,9.41610445 L44.4951436,0 L43.678147,0 Z M43.5140915,7.34456147 C43.3895593,7.64054215 43.2090249,7.90929677 42.9825516,8.13584463 C42.7519167,8.36269984 42.4808632,8.54372295 42.1836011,8.66942388 C41.8685883,8.80328256 41.5296838,8.87074709 41.1877839,8.86765766 C40.8451883,8.87255684 40.505383,8.80502426 40.1903263,8.66942388 C39.9035983,8.54567206 39.6450906,8.36407845 39.4307491,8.13584463 C39.2190871,7.90808676 39.0565424,7.63867236 38.9533475,7.34456147 C38.7346353,6.71628906 38.7346353,6.0317948 38.9533475,5.40352239 C39.0565424,5.1094115 39.2190871,4.8399971 39.4307491,4.61223923 C39.6460494,4.38363505 39.9057056,4.20201923 40.1936074,4.07865998 C40.5086641,3.9430596 40.8484694,3.87552703 41.1910651,3.8804262 C41.5329649,3.87733678 41.8718694,3.9448013 42.1868822,4.07865998 C42.4829774,4.20472392 42.7528904,4.3857287 42.9825516,4.61223923 C43.2107914,4.83834666 43.3930175,5.107131 43.5190132,5.40352239 C43.7811504,6.02361416 43.7811504,6.7244697 43.5190132,7.34456147 L43.5140915,7.34456147 Z" id="Shape" fill="#818181"></path>
                                    <path d="M46.8542623,0.0792935111 L49.5283676,0.0792935111 C49.8698066,0.0814372715 50.210113,0.119081104 50.5438714,0.191625985 C50.8874905,0.262563814 51.2158099,0.394579829 51.5134396,0.581485748 C51.8109647,0.771752655 52.0581223,1.03196488 52.2336435,1.33972995 C52.4334639,1.70952192 52.530921,2.1265909 52.515819,2.54730405 C52.5251308,2.92542473 52.4464763,3.30049662 52.2861412,3.64254567 C52.1436728,3.93893759 51.9354246,4.19837069 51.6774952,4.40078987 C51.4108692,4.60349824 51.1086369,4.75370222 50.7866736,4.84351197 C50.4435266,4.94139054 50.0884424,4.99032429 49.7317965,4.98888341 L47.718835,4.98888341 L47.718835,9.41610445 L46.8542623,9.41610445 L46.8542623,0.0792935111 Z M47.718835,4.1959483 L49.6875015,4.1959483 C49.9300989,4.19610446 50.1718575,4.16726904 50.4077053,4.11004699 C50.6324501,4.0576381 50.8455303,3.96352306 51.036038,3.8325197 C51.2230799,3.70132732 51.3761114,3.52683829 51.4822691,3.32371967 C51.6003626,3.08213747 51.6567496,2.81471008 51.6463246,2.5456521 C51.6539977,2.27955747 51.5929471,2.01601361 51.4691446,1.7808001 C51.3590678,1.57671337 51.2062492,1.3991597 51.021273,1.26043644 C50.8235862,1.11969843 50.6007647,1.01873245 50.3650509,0.963085771 C50.1252816,0.902185933 49.8790014,0.871117781 49.6317226,0.870576674 L47.718835,0.870576674 L47.718835,4.1959483 Z" id="Shape" fill="#55ACEE"></path>
                                    <path d="M58.3086201,6.86219261 L58.3086201,7.66669136 C58.3086201,7.90347059 58.3151823,8.12373035 58.3283068,8.32747062 C58.3370564,8.53010959 58.3479935,8.71898233 58.3611179,8.89408883 C58.3742423,9.06919534 58.393929,9.24540314 58.4201779,9.42271224 L57.6868496,9.42271224 C57.63204,9.09525538 57.6056913,8.7636097 57.608103,8.43154335 L57.5834946,8.43154335 C57.3876971,8.79516784 57.0951204,9.09664098 56.7386086,9.30212002 C56.3434526,9.50070147 55.9052674,9.59667001 55.4638971,9.58129926 C55.2031982,9.58138269 54.9435475,9.54807646 54.6911955,9.48218237 C54.4466106,9.42008994 54.2157036,9.31251881 54.010365,9.16500833 C53.5642358,8.84653888 53.3081118,8.32265472 53.3295345,7.77241604 C53.3079727,7.37158469 53.4341636,6.97685256 53.6838944,6.66395883 C53.9203072,6.39120675 54.2193712,6.18080511 54.5550294,6.05108607 C54.9082126,5.91262902 55.278614,5.82369342 55.655842,5.78677436 C56.0441068,5.74712761 56.3869829,5.72730423 56.6844703,5.72730423 L57.6015407,5.72730423 L57.6015407,5.35726785 C57.6015407,4.82974574 57.4374852,4.45144961 57.1093741,4.22237947 C56.7486502,3.98251779 56.3224125,3.86236555 55.8904415,3.87877425 C55.2119997,3.87127813 54.5545138,4.11528478 54.0431761,4.56433273 L53.5838206,4.02249374 C53.8897208,3.73075418 54.2570193,3.51223259 54.6583844,3.38318981 C55.0545499,3.24347912 55.470708,3.16982487 55.8904415,3.16513265 C56.6243166,3.16513265 57.209448,3.33913786 57.6458357,3.68714827 C58.0822235,4.03515868 58.3009642,4.59571975 58.3020579,5.36883148 L58.3086201,6.86219261 Z M56.7353275,6.36660816 C56.4131888,6.3660202 56.0914031,6.38809995 55.7723215,6.43268609 C55.4844377,6.47090855 55.2026643,6.54642187 54.9339977,6.65735104 C54.7051212,6.74900544 54.5010478,6.89392439 54.338476,7.08024976 C54.1870041,7.2659868 54.1077129,7.50081565 54.1153605,7.74102902 C54.1122281,7.9144709 54.1552801,8.08559296 54.2400427,8.23661347 C54.3214771,8.37880888 54.4336112,8.50075464 54.5681538,8.59343427 C54.7023552,8.68745508 54.8508503,8.75887059 55.0078227,8.80488363 C55.1675015,8.85305363 55.3332986,8.8775394 55.4999893,8.87756935 C55.8541302,8.88982426 56.20686,8.82678134 56.5351797,8.69255116 C56.7882822,8.58548696 57.0130081,8.42029783 57.1914019,8.2101823 C57.3496809,8.01382207 57.4618449,7.78398322 57.519513,7.5378394 C57.5769897,7.28711081 57.6039834,7.03027623 57.5999002,6.77298741 L57.5999002,6.36000037 L56.7353275,6.36660816 Z" id="Shape" fill="#55ACEE"></path>
                                    <path d="M65.6615894,0 L65.6615894,4.46026 L65.5943267,4.46026 C65.5071149,4.22227083 65.3460284,4.01893518 65.1349712,3.8804262 C64.9539064,3.72253879 64.7538269,3.58822616 64.5394495,3.48065475 C64.3238115,3.37704986 64.0970035,3.29888965 63.8635407,3.24773006 C63.6353715,3.19861811 63.4028962,3.17260814 63.1695858,3.1700885 C62.7303226,3.16520445 62.294223,3.2454028 61.8850309,3.40631708 C61.5067769,3.5535987 61.1631575,3.77864299 60.8760893,4.06709634 C60.5927844,4.3580871 60.3697246,4.70286155 60.2198672,5.0813925 C60.0590664,5.49030937 59.9788285,5.92682764 59.9836272,6.36660816 C59.9786571,6.80693974 60.0588973,7.2440316 60.2198672,7.65347577 C60.3696887,8.03251403 60.5927396,8.37783633 60.8760893,8.66942388 C61.1635793,8.95735215 61.5070826,9.18232041 61.8850309,9.33020314 C62.2932258,9.49620093 62.7293591,9.58145333 63.1695858,9.58129926 C63.4027353,9.58048712 63.6352165,9.55613675 63.8635407,9.50861354 C64.0967068,9.46027085 64.323523,9.38487955 64.5394495,9.28394859 C64.750495,9.19473553 64.9490456,9.07810999 65.1300495,8.93703948 C65.3022414,8.78471962 65.4563817,8.61287922 65.589405,8.42493556 L65.6566678,8.42493556 L65.6566678,9.41610445 L66.4769455,9.41610445 L66.4769455,0 L65.6615894,0 Z M65.4975339,7.34456147 C65.3727446,7.64040142 65.1922419,7.90910887 64.9659939,8.13584463 C64.7359384,8.36342061 64.4647397,8.54454067 64.1670435,8.66942388 C63.8520855,8.80346262 63.5131435,8.8709346 63.1712263,8.86765766 C62.8291465,8.87271911 62.4898433,8.80517523 62.1754092,8.66942388 C61.5970854,8.42282086 61.1478382,7.9434917 60.9367899,7.34786536 C60.7180777,6.71959296 60.7180777,6.0350987 60.9367899,5.40682629 C61.1478382,4.81119996 61.5970854,4.3318708 62.1754092,4.08526777 C62.4898433,3.94951643 62.8291465,3.88197254 63.1712263,3.88703399 C63.5131435,3.88375705 63.8520855,3.95122903 64.1670435,4.08526777 C64.4642115,4.20817788 64.7353727,4.38703032 64.9659939,4.61223923 C65.1945966,4.83839005 65.3773545,5.10713681 65.5040961,5.40352239 C65.7662333,6.02361416 65.7662333,6.7244697 65.5040961,7.34456147 L65.4975339,7.34456147 Z" id="Shape" fill="#55ACEE"></path>
                                    <path d="M4.74776734,9.92655642 L4.74776734,9.92655642 C4.59998048,9.9285942 4.45798431,9.86876899 4.35567459,9.76136161 L0.948241023,6.0246549 C0.779442461,5.85401371 0.634308289,5.66119511 0.516774952,5.45142889 C-0.149174572,4.27431478 0.14573015,2.7832498 1.20872737,1.9528548 C2.27172459,1.12245981 3.77933662,1.20542997 4.74612678,2.14753259 C5.78120122,1.09094676 7.46600249,1.06385837 8.53404948,2.08663002 C9.60209648,3.10940168 9.65979525,4.80512419 8.66377308,5.89910684 C8.65158176,5.91583053 8.63843513,5.93182635 8.62439975,5.94701333 L5.13986008,9.74649408 C5.03990106,9.85905998 4.89771381,9.92435721 4.74776734,9.92655642 L4.74776734,9.92655642 Z M2.87097195,2.45975079 C2.20524015,2.45853768 1.60478681,2.86255462 1.3511644,3.48235813 C1.09754199,4.10216164 1.24104322,4.81484618 1.7143804,5.28623408 L4.74776734,8.60004206 L7.80576261,5.25815096 L7.83693316,5.22015615 C8.27174006,4.75539403 8.40162096,4.07992968 8.17051074,3.48533785 C7.93940051,2.89074603 7.3886867,2.48350702 6.75609352,2.43941193 C6.12350034,2.39531683 5.52231343,2.72226225 5.21204451,3.27911707 C5.11684347,3.44376659 4.94189806,3.54504526 4.752689,3.54504526 C4.56347995,3.54504526 4.38853453,3.44376659 4.29333349,3.27911707 C3.99832674,2.77004655 3.45630593,2.45780978 2.87097195,2.45975079 L2.87097195,2.45975079 Z" id="Shape" fill="#55ACEE"></path>
                                </g>
                            </g>
                        </g>
                    </g>
                </g>
            </g>
            <g id="Progress-Bar/Desktop/Progress-Bar-1-0" transform="translate(103.615006, 43.920002)">
                <g id="Progress-Bar-Copy" transform="translate(2.120000, 2.385000)">
                    <polygon id="progress-line-copy" fill="#EEF6FE" fill-rule="nonzero" points="12.3462118 13.5150008 124.285007 13.5150008 124.285007 9.27500054 16.9605186 9.27500054"></polygon>
                    <path d="M91.471166,7.64589916 L83.9003788,15.4609053" id="Line-Copy-3" stroke="#FAFAFA" stroke-width="0.964600084" stroke-linecap="square"></path>
                    <path d="M103.926167,7.64589916 L96.3553795,15.4609053" id="Line-Copy-3" stroke="#FAFAFA" stroke-width="0.964600084" stroke-linecap="square"></path>
                    <path d="M41.121163,7.64589916 L33.5503758,15.4609053" id="Line-Copy" stroke="#FAFAFA" stroke-width="0.964600084" stroke-linecap="square"></path>
                    <g id="Progress-start">
                        <g id="Group" filter="url(#filter-7)">
                            <ellipse id="Oval" stroke="#FAFAFA" stroke-width="1.06000006" fill="#D3E9F9" cx="10.5339981" cy="10.6000006" rx="11.0639982" ry="11.1300007"></ellipse>
                            <path d="M10.6000006,3.18000019 C6.50416038,3.18000019 3.18000019,6.50416038 3.18000019,10.6000006 C3.18000019,14.6958409 6.50416038,18.0200011 10.6000006,18.0200011 C14.6958409,18.0200011 18.0200011,14.6958409 18.0200011,10.6000006 C18.0200011,6.50416038 14.6958409,3.18000019 10.6000006,3.18000019 Z" id="Path-Copy" fill="#D3E9F9"></path>
                            <path d="M10.6000006,3.18000019 C6.50416038,3.18000019 3.18000019,6.50416038 3.18000019,10.6000006 C3.18000019,14.6958409 6.50416038,18.0200011 10.6000006,18.0200011 C14.6958409,18.0200011 18.0200011,14.6958409 18.0200011,10.6000006 C18.0200011,6.50416038 14.6958409,3.18000019 10.6000006,3.18000019 Z M11.6462207,15.1187809 L11.6462207,16.536001 L9.66508057,16.536001 L9.66508057,15.1039409 C8.39626049,14.8368209 7.32036043,14.0206208 7.23874042,12.5811407 L8.69306051,12.5811407 C8.76726051,13.3602408 9.30150054,13.9686808 10.6593606,13.9686808 C12.1136807,13.9686808 12.4401607,13.2415208 12.4401607,12.7889007 C12.4401607,12.1730407 12.1136807,11.5942807 10.4590206,11.2010207 C8.6188605,10.7558206 7.35746043,9.99898058 7.35746043,8.4778805 C7.35746043,7.20164042 8.38884049,6.37060037 9.66508057,6.09606036 L9.66508057,4.66400027 L11.6462207,4.66400027 L11.6462207,6.11090036 C13.0263408,6.44480038 13.7164008,7.49102044 13.7609208,8.6262805 L12.3066007,8.6262805 C12.2695007,7.80266046 11.8317207,7.23874042 10.6593606,7.23874042 C9.54636056,7.23874042 8.87856052,7.74330045 8.87856052,8.45562049 C8.87856052,9.07890053 9.36086055,9.48700055 10.8597006,9.87284058 C12.3585407,10.2586806 13.9612608,10.9042206 13.9612608,12.7740607 C13.9538408,14.1319208 12.9373008,14.8739209 11.6462207,15.1187809 Z" id="Shape" fill="#2092E9" fill-rule="nonzero"></path>
                        </g>
                    </g>
                    <g id="Progress-start-Copy" transform="translate(55.650003, 0.000000)">
                        <ellipse id="Oval" stroke="#FAFAFA" stroke-width="1.06000006" fill="#EEF6FE" cx="10.5339981" cy="10.6000006" rx="11.0639982" ry="11.1300007"></ellipse>
                        <path d="M8.37400049,10.4145006 C7.86202046,10.4145006 7.44650044,10.8300206 7.44650044,11.3420007 C7.44650044,11.8539807 7.86202046,12.2695007 8.37400049,12.2695007 C8.88598052,12.2695007 9.30150054,11.8539807 9.30150054,11.3420007 C9.30150054,10.8300206 8.88598052,10.4145006 8.37400049,10.4145006 Z M12.8260008,10.4145006 C12.3140207,10.4145006 11.8985007,10.8300206 11.8985007,11.3420007 C11.8985007,11.8539807 12.3140207,12.2695007 12.8260008,12.2695007 C13.3379808,12.2695007 13.7535008,11.8539807 13.7535008,11.3420007 C13.7535008,10.8300206 13.3379808,10.4145006 12.8260008,10.4145006 Z M10.6000006,3.18000019 C6.50416038,3.18000019 3.18000019,6.50416038 3.18000019,10.6000006 C3.18000019,14.6958409 6.50416038,18.0200011 10.6000006,18.0200011 C14.6958409,18.0200011 18.0200011,14.6958409 18.0200011,10.6000006 C18.0200011,6.50416038 14.6958409,3.18000019 10.6000006,3.18000019 Z M10.6000006,16.536001 C7.32778043,16.536001 4.66400027,13.8722208 4.66400027,10.6000006 C4.66400027,10.3848206 4.67884027,10.1696406 4.70110027,9.96188058 C6.45222038,9.18278054 7.83976046,7.75072045 8.5669205,5.97734035 C9.90994058,7.87686046 12.1211007,9.11600053 14.6216409,9.11600053 C15.2004009,9.11600053 15.7569009,9.04922053 16.291141,8.92308052 C16.446961,9.44990055 16.536001,10.0138206 16.536001,10.6000006 C16.536001,13.8722208 13.8722208,16.536001 10.6000006,16.536001 Z" id="Shape" fill="#CDE2FC" fill-rule="nonzero"></path>
                    </g>
                    <g id="Progress-start-Copy-3" transform="translate(111.035006, 0.000000)">
                        <ellipse id="Oval" stroke="#FAFAFA" stroke-width="1.06000006" fill="#EEF6FE" cx="10.5339981" cy="10.6000006" rx="11.0639982" ry="11.1300007"></ellipse>
                        <path d="M16.5263646,8.24106606 L14.5027281,8.24106606 L14.5027281,5.56500033 L5.0590912,5.56500033 C4.31709116,5.56500033 3.71000022,6.16711511 3.71000022,6.90303319 L3.71000022,14.2622139 L5.0590912,14.2622139 C5.0590912,15.3727812 5.96298217,16.2692632 7.08272769,16.2692632 C8.20247321,16.2692632 9.10636417,15.3727812 9.10636417,14.2622139 L13.1536371,14.2622139 C13.1536371,15.3727812 14.0575281,16.2692632 15.1772736,16.2692632 C16.2970191,16.2692632 17.2009101,15.3727812 17.2009101,14.2622139 L18.5500011,14.2622139 L18.5500011,10.9171318 L16.5263646,8.24106606 Z M7.11590206,15.2961484 C6.57744519,15.2961484 6.14278724,14.8614905 6.14278724,14.3230336 C6.14278724,13.7845768 6.57744519,13.3499188 7.11590206,13.3499188 C7.65435892,13.3499188 8.08901687,13.7845768 8.08901687,14.3230336 C8.08901687,14.8614905 7.65435892,15.2961484 7.11590206,15.2961484 Z M16.050667,9.21418087 L17.3336076,10.9171318 L14.4142631,10.9171318 L14.4142631,9.21418087 L16.050667,9.21418087 Z M15.1440992,15.2961484 C14.6056424,15.2961484 14.1709844,14.8614905 14.1709844,14.3230336 C14.1709844,13.7845768 14.6056424,13.3499188 15.1440992,13.3499188 C15.6825561,13.3499188 16.1172141,13.7845768 16.1172141,14.3230336 C16.1172141,14.8614905 15.6825561,15.2961484 15.1440992,15.2961484 Z" id="Shape" fill="#CDE1FE" fill-rule="nonzero"></path>
                    </g>
                </g>
            </g>
            <g id="Forms/Inputs/input_focused_box" transform="translate(49.000000, 147.000000)">
                <g id="input_unfocused" transform="translate(0.000000, 0.795000)">
                    <g id="Field" transform="translate(0.000000, 5.035000)">
                        <rect id="Rectangle-Copy" stroke="#6464F1" stroke-width="0.5" fill="#FFFFFF" x="0.25" y="0.25" width="100.101858" height="10.1000006" rx="1.06000006"></rect>
                        <text id="Text" font-family="SofiaProRegular, Sofia Pro" font-size="4.24000025" font-weight="normal" fill="#3A4349" fill-opacity="0.9">
                            <tspan x="2.12000012" y="6.91500017">Bartholomew Shoe</tspan>
                        </text>
                        <text id="|" font-family="SofiaProRegular, Sofia Pro" font-size="4.24000025" font-weight="normal" fill="#6464F1">
                            <tspan x="10.0700006" y="6.91500017">|</tspan>
                        </text>
                    </g>
                    <text id="Label" font-family="SofiaPro-Bold, Sofia Pro" font-size="3.71000022" font-weight="bold" letter-spacing="0.34781252" fill="#6464F1">
                        <tspan x="0" y="3">FULL NAME</tspan>
                    </text>
                </g>
            </g>
        </g>
        <rect id="Rectangle" fill="url(#linearGradient-8)" x="0" y="216" width="320" height="23"></rect>
    </g>
</svg>