<svg xmlns="http://www.w3.org/2000/svg" height="24" width="24"><path d="M24 12c.001-6.627-5.372-12-11.999-12.001-1.998 0-3.965.499-5.721 1.451h-.05A12.09 12.09 0 0 0 0 12a11.94 11.94 0 0 0 2.71 7.58c4.195 5.131 11.755 5.889 16.886 1.694A12 12 0 0 0 24 12zm-3.93-5.88A9.93 9.93 0 0 1 22 11.65c-.88-.09-1.82-.14-2.62-.14a24.196 24.196 0 0 0-4.17.38c-.27-.69-.56-1.37-.89-2a23.917 23.917 0 0 0 5.75-3.77zm-1.33-1.48a21.89 21.89 0 0 1-5.42 3.47 23.935 23.935 0 0 0-4.67-5.52 9.9 9.9 0 0 1 10.09 2v.05zM6.68 3.55a22 22 0 0 1 4.75 5.3A21.989 21.989 0 0 1 4.35 10c-.71 0-1.42 0-2.13-.11a10 10 0 0 1 4.46-6.34zM2 11.92c.78.08 1.56.13 2.34.13a23.946 23.946 0 0 0 8.09-1.42c.287.56.547 1.13.78 1.71a23.77 23.77 0 0 0-9.59 5.11A9.906 9.906 0 0 1 2 11.92zM4.87 19a21.796 21.796 0 0 1 9-4.78 22.09 22.09 0 0 1 .94 6.39v1A9.941 9.941 0 0 1 4.87 19zm12 1.76v-.15a24.125 24.125 0 0 0-1-6.8 22.068 22.068 0 0 1 3.5-.3c.77 0 1.66.05 2.49.14a10 10 0 0 1-5.04 7.11h.05z" fill="#4A4A4A"/></svg>