<svg xmlns="http://www.w3.org/2000/svg" height="24" width="24"><path d="M23.612.225a1.046 1.046 0 0 0-1.138-.1L.827 11.646a1.547 1.547 0 0 0 .125 2.8l3.254 1.38a.73.73 0 0 0 .043.245l2.5 6.746A1.817 1.817 0 0 0 8.463 24a1.848 1.848 0 0 0 1.219-.474 1188 1188 0 0 0 3.4-3.754.249.249 0 0 1 .283-.062l3.157 1.339c.417.177.89.167 1.3-.027.407-.192.711-.55.835-.983L23.961 1.3a1.013 1.013 0 0 0-.349-1.075zM5.838 16.046l9.692-8.063a.226.226 0 0 1 .32-.002l.017.019a.219.219 0 0 1 .019.332l-7.238 8.855a.728.728 0 0 0-.157.351l-.633 3.95-2.02-5.442z" fill="#4A4A4A"/></svg>