<svg xmlns="http://www.w3.org/2000/svg" height="24" width="24"><path d="M12 .28C5.373.278-.002 5.649-.004 12.276A12 12 0 0 0 8.28 23.69h.29a1 1 0 0 0 1.06-1.06v-.21-1.09a.502.502 0 0 0-.2-.33.5.5 0 0 0-.42-.1c-2.68.58-3.25-1.1-3.29-1.21A4.644 4.644 0 0 0 4 17.5a1.155 1.155 0 0 0-.15-.11.627.627 0 0 1 .38-.07 1.47 1.47 0 0 1 1.15.88 3 3 0 0 0 4 1.16c.15-.065.258-.2.29-.36.038-.463.236-.897.56-1.23a.5.5 0 0 0-.27-.87c-2.37-.27-4.79-1.1-4.79-5.19a4 4 0 0 1 1.05-2.78.498.498 0 0 0 .09-.53A3.522 3.522 0 0 1 6.32 6a5.537 5.537 0 0 1 2.52 1.15.49.49 0 0 0 .42.07A10.607 10.607 0 0 1 12 6.85a10.47 10.47 0 0 1 2.75.37c.14.039.291.013.41-.07A5.588 5.588 0 0 1 17.68 6c.272.77.272 1.61 0 2.38a.498.498 0 0 0 .09.53 4 4 0 0 1 1.05 2.75c0 4.09-2.43 4.91-4.81 5.18a.5.5 0 0 0-.27.88c.448.463.671 1.099.61 1.74v3.18c-.01.317.122.621.36.83a1.2 1.2 0 0 0 1.06.19c6.285-2.103 9.676-8.902 7.573-15.187A12 12 0 0 0 12 .28z" fill="#4A4A4A"/></svg>