<svg width="84" height="124" viewBox="0 0 84 124" fill="none" xmlns="http://www.w3.org/2000/svg">
<rect x="80" y="123" width="123" height="4.00001" rx="2" transform="rotate(-90 80 123)" fill="#E8E6E3" fill-opacity="0.6"/>
<path d="M6.67612 123.523C9.9105 123.523 12.5568 120.876 12.5568 117.642C12.5568 114.408 9.9105 111.761 6.67612 111.761C3.44175 111.761 0.795441 114.408 0.795441 117.642C0.795441 120.876 3.44175 123.523 6.67612 123.523Z" fill="#E8E6E3"/>
<path d="M32.0121 123.523C35.2464 123.523 37.8927 120.876 37.8927 117.642C37.8927 114.408 35.2464 111.761 32.0121 111.761C28.7777 111.761 26.1314 114.408 26.1314 117.642C26.1314 120.876 28.7777 123.523 32.0121 123.523Z" fill="#E8E6E3"/>
<path d="M57.348 123.523C60.5824 123.523 63.2287 120.876 63.2287 117.642C63.2287 114.408 60.5824 111.761 57.348 111.761C54.1136 111.761 51.4673 114.408 51.4673 117.642C51.4673 120.876 54.1136 123.523 57.348 123.523Z" fill="#E8E6E3"/>
</svg>
