<?xml version="1.0" encoding="UTF-8"?>
<svg width="342px" height="167px" viewBox="0 0 342 167" version="1.1" xmlns="http://www.w3.org/2000/svg" xmlns:xlink="http://www.w3.org/1999/xlink">
    <!-- Generator: Sketch 57.1 (83088) - https://sketch.com -->
    <title>tap5-small</title>
    <desc>Created with Sketch.</desc>
    <g id="website" stroke="none" stroke-width="1" fill="none" fill-rule="evenodd">
        <g id="Desktop-HD-Copy" transform="translate(-549.000000, -374.000000)" fill="#FFFFFF">
            <g id="tap5-small" transform="translate(549.000000, 374.000000)">
                <path d="M149.933242,10.3608247 L140,10.3608247 L140,3 L169.185671,3 L169.185671,10.3608247 L159.28855,10.3608247 L159.28855,64.628866 L149.933242,64.628866 L149.933242,10.3608247 Z M190.003338,3 L200.76736,3 L212.181558,64.628866 L202.717888,64.628866 L201.020206,53.5876289 L189.750492,53.5876289 L188.125052,64.628866 L178.625261,64.628866 L190.003338,3 Z M199.93658,46.5515464 L195.602074,15.8453608 L195.204745,15.8453608 L190.834118,46.5515464 L199.93658,46.5515464 Z M225.847291,3 L235.202599,3 C236.382553,3 237.676872,3.05412317 239.085593,3.16237113 C240.494315,3.2706191 241.903015,3.52319389 243.311736,3.92010309 C244.720458,4.31701229 246.080997,4.92439454 247.393396,5.74226804 C248.705794,6.56014155 249.867671,7.67267338 250.879061,9.07989691 C251.89045,10.4871204 252.703162,12.2491303 253.31722,14.3659794 C253.931278,16.4828285 254.238302,19.0566859 254.238302,22.0876289 L254.238302,24.2525773 C254.238302,27.5481264 253.955358,30.368545 253.389462,32.7139175 C252.823565,35.0592901 252.071054,37.0317789 251.131907,38.6314433 C250.192759,40.2311077 249.103124,41.5120227 247.862967,42.4742268 C246.622811,43.4364309 245.334512,44.1640869 243.998033,44.6572165 C242.661554,45.1503461 241.313054,45.4750851 239.952494,45.6314433 C238.591935,45.7878015 237.309656,45.8659794 236.105621,45.8659794 L235.202599,45.8659794 L235.202599,64.628866 L225.847291,64.628866 L225.847291,3 Z M235.67217,39.0103093 C237.35782,39.0103093 238.77856,38.7637482 239.934434,38.2706186 C241.090308,37.7774889 242.011381,37.0077372 242.697681,35.9613402 C243.383981,34.9149432 243.877629,33.5678777 244.178637,31.9201031 C244.479646,30.2723285 244.630148,28.293826 244.630148,25.9845361 L244.630148,20.4278351 C244.630148,18.5996472 244.497707,17.0180479 244.232819,15.6829897 C243.967931,14.3479315 243.492344,13.247427 242.806044,12.3814433 C242.119744,11.5154596 241.198671,10.8719952 240.042797,10.4510309 C238.886923,10.0300666 237.430062,9.81958763 235.67217,9.81958763 L235.202599,9.81958763 L235.202599,39.0103093 L235.67217,39.0103093 Z M143.503725,124.958763 L193.892353,124.958763 L193.892353,132.283505 L143.503725,132.283505 L143.503725,124.958763 Z M211.42302,95.371134 L235.009954,95.371134 L235.009954,102.731959 L220.778327,102.731959 L220.778327,121.170103 L231.939679,121.170103 L231.939679,128.530928 L220.778327,128.530928 L220.778327,157 L211.42302,157 L211.42302,95.371134 Z M248.964654,95.371134 L258.319962,95.371134 L258.319962,157 L248.964654,157 L248.964654,95.371134 Z M271.985695,95.371134 L281.557728,95.371134 L288.348453,144.190722 L288.745783,144.190722 L295.572629,95.371134 L305.108541,95.371134 L293.874948,157 L283.183167,157 L271.985695,95.371134 Z M318.774274,95.371134 L341.638791,95.371134 L341.638791,102.731959 L328.129582,102.731959 L328.129582,121.170103 L338.568516,121.170103 L338.568516,128.530928 L328.129582,128.530928 L328.129582,149.639175 L342,149.639175 L342,157 L318.774274,157 L318.774274,95.371134 Z" id="TAP-—FIVE"></path>
                <path d="M24.4689922,146.868493 C17.1511628,146.868493 10.5193798,143.436986 6.40310078,138.632877 C10.9767442,153.731507 24.4689922,160.594521 39.1046512,160.594521 C57.8565891,160.594521 69.748062,146.639726 69.748062,112.324658 C69.748062,83.0424658 53.5116279,72.0616438 41.1627907,72.0616438 C24.2403101,72.0616438 16.4651163,81.669863 13.9496124,87.3890411 L9.83333333,87.3890411 L17.379845,0 L109.53876,0 L109.53876,3.43150685 C109.53876,23.3342466 96.2751938,37.2890411 68.6046512,37.2890411 C52.3682171,37.2890411 29.9573643,27.2232877 21.0387597,21.0465753 L15.5503876,78.2383562 C21.496124,67.0287671 40.248062,56.2767123 62.2015504,56.2767123 C84.6124031,56.2767123 118,70.0027397 118,109.121918 C118,148.241096 89.1860465,167 51.6821705,167 C12.3488372,167 0,147.783562 0,127.194521 C0,109.808219 11.6627907,100.428767 24.0116279,100.428767 C36.3604651,100.428767 47.1085271,107.291781 47.1085271,122.619178 C47.1085271,137.031507 36.3604651,146.868493 24.4689922,146.868493 Z" id="5"></path>
            </g>
        </g>
    </g>
</svg>