
<svg width="200px" height="188px" viewBox="0 0 200 188" version="1.1" xmlns="http://www.w3.org/2000/svg" xmlns:xlink="http://www.w3.org/1999/xlink">
    <g id="Page-1" stroke="none" stroke-width="1" fill="none" fill-rule="evenodd">
        <g id="grandpad-logo" fill="#FFFFFF">
            <path d="M99.4450333,187.579323 L99.4450333,187.579323 C96.2400944,187.622722 93.1607333,186.316278 90.9420222,183.970722 L17.0476611,102.369 C13.3870556,98.6425556 10.2396444,94.4318333 7.69078889,89.8509444 C-6.75113889,64.1452778 -0.355766667,31.5836111 22.6966278,13.4495556 C45.7490167,-4.6845 78.4434278,-2.87261111 99.4094556,17.7008889 C121.856311,-5.37272222 158.393283,-5.96422222 181.555189,16.3708889 C204.717094,38.7060556 205.968361,75.7370556 184.368406,99.6272778 C184.104022,99.9925 183.818922,100.341833 183.514544,100.6735 L107.948044,183.646056 C105.780311,186.104278 102.696806,187.530222 99.4450333,187.579323 L99.4450333,187.579323 Z M58.7444333,24.5190556 C44.3072222,24.4926111 31.2856611,33.3154444 25.7855444,46.8506667 C20.2854333,60.3858333 23.3974333,75.9493333 33.6623278,86.2434444 L99.4450333,158.61 L165.7614,85.6301667 L166.437372,84.8004444 C175.866689,74.6510556 178.683317,59.9003333 173.671406,46.9157222 C168.6595,33.9311111 156.7166,25.0378889 142.998039,24.0749444 C129.279483,23.112 116.242011,30.2517778 109.51345,42.4122778 C107.4489,46.0078889 103.654994,48.2196111 99.5517667,48.2196111 C95.4485333,48.2196111 91.6546333,46.0078889 89.5900778,42.4122778 C83.1925,31.2952778 71.4381111,24.4766667 58.7444333,24.5190556 L58.7444333,24.5190556 Z" id="Shape"></path>
        </g>
    </g>
</svg>