<svg xmlns="http://www.w3.org/2000/svg" version="1.1" xmlns:xlink="http://www.w3.org/1999/xlink" xmlns:svgjs="http://svgjs.com/svgjs" viewBox="0 0 24 24" height="24" width="24"><title>send email 1 (From Streamline App : https://app.streamlineicons.com)</title><g transform="matrix(1,0,0,1,0,0)"><path d="M23.612,0.225c-0.326-0.256-0.772-0.295-1.138-0.1L0.827,11.646c-0.757,0.396-1.05,1.331-0.654,2.088 c0.168,0.321,0.444,0.573,0.779,0.712l3.254,1.38c0,0.084,0.015,0.166,0.043,0.245l2.5,6.746C7.015,23.532,7.7,24.005,8.463,24 c0.451-0.004,0.884-0.173,1.219-0.474c0.039-0.035,2.79-3.078,3.4-3.754c0.071-0.079,0.185-0.104,0.283-0.062l3.157,1.339 c0.417,0.177,0.89,0.167,1.3-0.027c0.407-0.192,0.711-0.55,0.835-0.983L23.961,1.3C24.074,0.904,23.936,0.479,23.612,0.225z M5.838,16.046l9.692-8.063c0.088-0.089,0.231-0.09,0.32-0.002C15.856,7.987,15.862,7.993,15.867,8 c0.096,0.073,0.115,0.211,0.041,0.307c-0.007,0.009-0.014,0.017-0.022,0.025l-7.238,8.855c-0.083,0.101-0.137,0.222-0.157,0.351 l-0.633,3.95L5.838,16.046z" stroke="none" fill="#4A4A4A" stroke-width="0" stroke-linecap="round" stroke-linejoin="round"></path></g></svg>