
<svg width="200px" height="200px" viewBox="0 0 200 200" version="1.1" xmlns="http://www.w3.org/2000/svg" xmlns:xlink="http://www.w3.org/1999/xlink">
    <g id="Page-1" stroke="none" stroke-width="1" fill="none" fill-rule="evenodd">
        <g id="Group" fill="#FFFFFF">
            <path d="M0,14.8148148 C0,6.63281852 6.63281852,0 14.8148148,0 L185.185185,0 C193.367181,0 200,6.63281852 200,14.8148148 L200,185.185185 C200,193.367181 193.367181,200 185.185185,200 L14.8148148,200 C6.63281852,200 0,193.367181 0,185.185185 L0,14.8148148 Z M29.6296296,33.3333333 C29.6296296,31.2878343 31.2878343,29.6296296 33.3333333,29.6296296 L55.5555556,29.6296296 C57.6010546,29.6296296 59.2592593,31.2878343 59.2592593,33.3333333 L59.2592593,55.5555556 C59.2592593,57.6010546 57.6010546,59.2592593 55.5555556,59.2592593 L33.3333333,59.2592593 C31.2878343,59.2592593 29.6296296,57.6010546 29.6296296,55.5555556 L29.6296296,33.3333333 Z M70.3703704,29.6296296 C68.3248713,29.6296296 66.6666667,31.2878343 66.6666667,33.3333333 L66.6666667,55.5555556 C66.6666667,57.6010546 68.3248713,59.2592593 70.3703704,59.2592593 L92.5925926,59.2592593 C94.6380917,59.2592593 96.2962963,57.6010546 96.2962963,55.5555556 L96.2962963,33.3333333 C96.2962963,31.2878343 94.6380917,29.6296296 92.5925926,29.6296296 L70.3703704,29.6296296 Z M103.703704,33.3333333 C103.703704,31.2878343 105.361908,29.6296296 107.407407,29.6296296 L129.62963,29.6296296 C131.675129,29.6296296 133.333333,31.2878343 133.333333,33.3333333 L133.333333,55.5555556 C133.333333,57.6010546 131.675129,59.2592593 129.62963,59.2592593 L107.407407,59.2592593 C105.361908,59.2592593 103.703704,57.6010546 103.703704,55.5555556 L103.703704,33.3333333 Z M33.3333333,66.6666667 C31.2878343,66.6666667 29.6296296,68.3248713 29.6296296,70.3703704 L29.6296296,92.5925926 C29.6296296,94.6380917 31.2878343,96.2962963 33.3333333,96.2962963 L55.5555556,96.2962963 C57.6010546,96.2962963 59.2592593,94.6380917 59.2592593,92.5925926 L59.2592593,70.3703704 C59.2592593,68.3248713 57.6010546,66.6666667 55.5555556,66.6666667 L33.3333333,66.6666667 Z M66.6666667,70.3703704 C66.6666667,68.3248713 68.3248713,66.6666667 70.3703704,66.6666667 L92.5925926,66.6666667 C94.6380917,66.6666667 96.2962963,68.3248713 96.2962963,70.3703704 L96.2962963,92.5925926 C96.2962963,94.6380917 94.6380917,96.2962963 92.5925926,96.2962963 L70.3703704,96.2962963 C68.3248713,96.2962963 66.6666667,94.6380917 66.6666667,92.5925926 L66.6666667,70.3703704 Z M144.444444,66.6666667 C142.398945,66.6666667 140.740741,68.3248713 140.740741,70.3703704 L140.740741,92.5925926 C140.740741,94.6380917 142.398945,96.2962963 144.444444,96.2962963 L166.666667,96.2962963 C168.712166,96.2962963 170.37037,94.6380917 170.37037,92.5925926 L170.37037,70.3703704 C170.37037,68.3248713 168.712166,66.6666667 166.666667,66.6666667 L144.444444,66.6666667 Z M29.6296296,107.407407 C29.6296296,105.361908 31.2878343,103.703704 33.3333333,103.703704 L55.5555556,103.703704 C57.6010546,103.703704 59.2592593,105.361908 59.2592593,107.407407 L59.2592593,129.62963 C59.2592593,131.675129 57.6010546,133.333333 55.5555556,133.333333 L33.3333333,133.333333 C31.2878343,133.333333 29.6296296,131.675129 29.6296296,129.62963 L29.6296296,107.407407 Z M107.407407,103.703704 C105.361908,103.703704 103.703704,105.361908 103.703704,107.407407 L103.703704,129.62963 C103.703704,131.675129 105.361908,133.333333 107.407407,133.333333 L129.62963,133.333333 C131.675129,133.333333 133.333333,131.675129 133.333333,129.62963 L133.333333,107.407407 C133.333333,105.361908 131.675129,103.703704 129.62963,103.703704 L107.407407,103.703704 Z M140.740741,107.407407 C140.740741,105.361908 142.398945,103.703704 144.444444,103.703704 L166.666667,103.703704 C168.712166,103.703704 170.37037,105.361908 170.37037,107.407407 L170.37037,129.62963 C170.37037,131.675129 168.712166,133.333333 166.666667,133.333333 L144.444444,133.333333 C142.398945,133.333333 140.740741,131.675129 140.740741,129.62963 L140.740741,107.407407 Z M70.3703704,140.740741 C68.3248713,140.740741 66.6666667,142.398945 66.6666667,144.444444 L66.6666667,166.666667 C66.6666667,168.712166 68.3248713,170.37037 70.3703704,170.37037 L92.5925926,170.37037 C94.6380917,170.37037 96.2962963,168.712166 96.2962963,166.666667 L96.2962963,144.444444 C96.2962963,142.398945 94.6380917,140.740741 92.5925926,140.740741 L70.3703704,140.740741 Z M103.703704,144.444444 C103.703704,142.398945 105.361908,140.740741 107.407407,140.740741 L129.62963,140.740741 C131.675129,140.740741 133.333333,142.398945 133.333333,144.444444 L133.333333,166.666667 C133.333333,168.712166 131.675129,170.37037 129.62963,170.37037 L107.407407,170.37037 C105.361908,170.37037 103.703704,168.712166 103.703704,166.666667 L103.703704,144.444444 Z M144.444444,140.740741 C142.398945,140.740741 140.740741,142.398945 140.740741,144.444444 L140.740741,166.666667 C140.740741,168.712166 142.398945,170.37037 144.444444,170.37037 L166.666667,170.37037 C168.712166,170.37037 170.37037,168.712166 170.37037,166.666667 L170.37037,144.444444 C170.37037,142.398945 168.712166,140.740741 166.666667,140.740741 L144.444444,140.740741 Z" id="Shape"></path>
        </g>
    </g>
</svg>