<svg width="379" height="271" xmlns="http://www.w3.org/2000/svg"><g fill="none" fill-rule="evenodd"><path d="M189.41 110.34c30.72 17.65 61.29 35.43 92 53.06-3.71 2.43-7.64 4.54-11.46 6.79-26.66 15.65-53.87 30.82-80.57 46.54-30.707-17.713-61.41-35.43-92.11-53.15 30.64-17.85 61.43-35.51 92.14-53.24z" fill="#000" fill-rule="nonzero"/><path d="M186.82 108.75c-30.26 17.48-60.74 35.23-91 52.45V56.57c0-.13 0-.25.09-.27 30.28 17.467 60.583 34.95 90.91 52.45zM282.94 56.3c.2 34.76 0 69.9.09 104.81-.54.1-.92-.39-1.33-.62-29.94-16.82-59.7-34.76-89.64-51.65 30.22-17.58 60.61-35 90.88-52.54z" stroke="#FFF" stroke-width=".2" fill="#237FB3"/><path d="M189.41 110.34c30.72 17.65 61.29 35.43 92 53.06-3.71 2.43-7.64 4.54-11.46 6.79-26.66 15.65-53.87 30.82-80.57 46.54-30.707-17.713-61.41-35.43-92.11-53.15 30.64-17.85 61.43-35.51 92.14-53.24z" stroke="#FFF" stroke-width=".2" fill="#25447D"/><path d="M186.68 218.23c-30.16 17.55-60.69 35.21-90.88 52.44V166.04c0-.12 0-.24.09-.26 30.24 17.5 60.503 34.983 90.79 52.45zM282.82 165.78c.2 34.76 0 69.9.09 104.81-.54.1-.92-.4-1.32-.62-30-16.82-59.71-34.76-89.65-51.66 30.25-17.58 60.64-34.99 90.88-52.53z" stroke="#FFF" stroke-width=".2" fill="#237FB3"/><path d="M377.01 218.19c-30.16 17.55-60.69 35.21-90.87 52.45V166.01c0-.13 0-.25.08-.27a94284.91 94284.91 0 0090.79 52.45zM93.18 165.82c.21 34.76 0 69.89.09 104.8-.54.11-.92-.39-1.32-.61-30-16.82-59.71-34.76-89.65-51.66 30.23-17.58 60.62-35 90.88-52.53z" stroke="#FFF" stroke-width=".2" fill="#23B3CF"/><path d="M189.41 1c30.72 17.65 61.29 35.44 92 53.07-3.71 2.43-7.64 4.54-11.46 6.78-26.66 15.66-53.87 30.83-80.57 46.55-30.707-17.713-61.41-35.433-92.11-53.16C127.91 36.4 158.7 18.74 189.41 1zM285.96 162.56c0-35.42.14-70.79.08-106.23 4 2 7.76 4.36 11.61 6.55 26.86 15.29 53.58 31.31 80.52 46.61 0 35.45-.13 70.89-.12 106.35-30.74-17.62-61.4-35.5-92.09-53.28zM93.22 162.63c-30.61 17.82-61.27 35.46-91.88 53.31-.26-4.43-.13-8.89-.17-13.32-.28-30.91.14-62.06-.17-93 30.667-17.8 61.333-35.583 92-53.35.21 35.39.16 70.89.22 106.36z" stroke="#FFF" stroke-width=".2" fill="#93D5E0"/></g></svg>